<svg width="36" height="36" fill="none" xmlns="http://www.w3.org/2000/svg"><path d="M12 4.5c-4.136 0-7.5 3.364-7.5 7.5v12c0 4.136 3.364 7.5 7.5 7.5h12c4.136 0 7.5-3.364 7.5-7.5V12c0-4.136-3.364-7.5-7.5-7.5H12Zm0 3h12c2.481 0 4.5 2.019 4.5 4.5v12c0 2.481-2.019 4.5-4.5 4.5H12A4.505 4.505 0 0 1 7.5 24V12c0-2.481 2.019-4.5 4.5-4.5ZM25.5 9a1.5 1.5 0 1 0 0 3 1.5 1.5 0 0 0 0-3ZM18 10.5c-4.136 0-7.5 3.364-7.5 7.5s3.364 7.5 7.5 7.5 7.5-3.364 7.5-7.5-3.364-7.5-7.5-7.5Zm0 3c2.481 0 4.5 2.019 4.5 4.5s-2.019 4.5-4.5 4.5a4.505 4.505 0 0 1-4.5-4.5c0-2.481 2.019-4.5 4.5-4.5Z" fill="#656565"/></svg>