<svg width="24" height="25" fill="none" xmlns="http://www.w3.org/2000/svg"><path d="M4.26 19.48c1.26-.88 2.51-1.554 3.75-2.024 1.24-.47 2.57-.705 3.99-.705 1.42 0 2.755.235 4.005.705S18.51 18.6 19.77 19.48c.88-1.08 1.505-2.17 1.875-3.27.37-1.1.555-2.26.555-3.48 0-2.9-.975-5.325-2.925-7.275C17.325 3.506 14.9 2.53 12 2.53c-2.9 0-5.325.975-7.275 2.925C2.775 7.406 1.8 9.83 1.8 12.73c0 1.22.19 2.38.57 3.48.38 1.1 1.01 2.19 1.89 3.27ZM12 13.63c-1.16 0-2.135-.394-2.925-1.184-.79-.79-1.185-1.765-1.185-2.925s.395-2.135 1.185-2.925S10.84 5.41 12 5.41s2.135.395 2.925 1.185S16.11 8.36 16.11 9.52s-.395 2.135-1.185 2.925S13.16 13.63 12 13.63Zm0 11.1c-1.64 0-3.19-.314-4.65-.944a12.172 12.172 0 0 1-3.825-2.58 12.172 12.172 0 0 1-2.58-3.825C.315 15.92 0 14.37 0 12.73c0-1.66.315-3.215.945-4.665a12.22 12.22 0 0 1 2.58-3.81 12.172 12.172 0 0 1 3.825-2.58C8.81 1.046 10.36.73 12 .73c1.66 0 3.215.315 4.665.945 1.45.63 2.72 1.49 3.81 2.58a12.22 12.22 0 0 1 2.58 3.81c.63 1.45.945 3.005.945 4.665 0 1.64-.315 3.19-.945 4.65a12.172 12.172 0 0 1-2.58 3.825 12.22 12.22 0 0 1-3.81 2.58c-1.45.63-3.005.945-4.665.945Zm0-1.8c1.1 0 2.175-.16 3.225-.48 1.05-.32 2.085-.88 3.105-1.68-1.02-.72-2.06-1.27-3.12-1.65a9.452 9.452 0 0 0-3.21-.57c-1.08 0-2.15.19-3.21.57-1.06.38-2.1.93-3.12 1.65 1.02.8 2.055 1.36 3.105 1.68 1.05.32 2.125.48 3.225.48Zm0-11.1c.68 0 1.235-.214 1.665-.644.43-.43.645-.985.645-1.665s-.215-1.235-.645-1.665c-.43-.43-.985-.645-1.665-.645s-1.235.215-1.665.645c-.43.43-.645.985-.645 1.665s.215 1.235.645 1.665c.43.43.985.645 1.665.645Z" fill="#1B1517"/></svg>