<svg width="28" height="20" fill="none" xmlns="http://www.w3.org/2000/svg"><path d="M11.808 13.92c0-3.36-2.208-5.184-4.704-5.184-1.248 0-2.016.288-2.592.672 0-2.784 2.496-5.184 5.856-5.856V0C4.512.96 0 6.048 0 12c0 4.8 2.88 7.488 6.24 7.488 3.36 0 5.568-2.4 5.568-5.568Zm15.552 0c0-3.36-2.208-5.184-4.704-5.184-1.152 0-2.016.192-2.592.576 0-2.688 2.496-5.088 5.856-5.76V0c-5.952.96-10.464 6.048-10.464 12 0 4.8 2.976 7.488 6.24 7.488 3.36 0 5.664-2.4 5.664-5.568Z" fill="#FA809E" fill-opacity=".2"/></svg>