<svg width="28" height="20" fill="none" xmlns="http://www.w3.org/2000/svg"><path d="M11.808 7.488C11.808 2.784 8.928 0 5.664 0 2.304 0 0 2.4 0 5.664s2.208 5.088 4.704 5.088c1.152 0 2.016-.192 2.592-.576 0 2.688-2.496 5.088-5.856 5.76v3.552a12.101 12.101 0 0 0 10.368-12Zm15.552 0C27.36 2.784 24.48 0 21.12 0c-3.36 0-5.664 2.4-5.664 5.664s2.304 5.088 4.8 5.088c1.248 0 2.016-.288 2.592-.672 0 2.784-2.496 5.184-5.856 5.856v3.552c5.856-.864 10.368-5.952 10.368-12Z" fill="#FA809E" fill-opacity=".2"/></svg>