<svg width="16" height="16" viewBox="0 0 16 16" fill="none" xmlns="http://www.w3.org/2000/svg">
<path d="M3.3268 2.65996C3.19418 2.65999 3.06458 2.69958 2.95457 2.77365C2.84456 2.84773 2.75915 2.95293 2.70924 3.0758C2.65934 3.19868 2.64721 3.33365 2.67442 3.46345C2.70162 3.59325 2.76691 3.71199 2.86195 3.80449L7.05727 7.9998L2.86195 12.1951C2.79797 12.2565 2.74689 12.3301 2.7117 12.4115C2.67651 12.493 2.65792 12.5806 2.65702 12.6693C2.65611 12.758 2.67292 12.846 2.70644 12.9281C2.73997 13.0102 2.78955 13.0848 2.85226 13.1475C2.91498 13.2102 2.98959 13.2598 3.0717 13.2933C3.15382 13.3269 3.24181 13.3437 3.3305 13.3428C3.41919 13.3419 3.50681 13.3233 3.58823 13.2881C3.66965 13.2529 3.74323 13.2018 3.80466 13.1378L7.99997 8.94251L12.1953 13.1378C12.2567 13.2018 12.3303 13.2529 12.4117 13.2881C12.4931 13.3233 12.5808 13.3419 12.6695 13.3428C12.7581 13.3437 12.8461 13.3269 12.9282 13.2933C13.0104 13.2598 13.085 13.2102 13.1477 13.1475C13.2104 13.0848 13.26 13.0102 13.2935 12.9281C13.327 12.846 13.3438 12.758 13.3429 12.6693C13.342 12.5806 13.3234 12.493 13.2883 12.4115C13.2531 12.3301 13.202 12.2565 13.138 12.1951L8.94268 7.9998L13.138 3.80449C13.2343 3.71085 13.3001 3.59029 13.3268 3.45861C13.3534 3.32693 13.3396 3.19027 13.2873 3.06655C13.2349 2.94282 13.1464 2.8378 13.0333 2.76525C12.9203 2.6927 12.7879 2.656 12.6536 2.65996C12.4804 2.66512 12.316 2.7375 12.1953 2.86178L7.99997 7.05709L3.80466 2.86178C3.74254 2.79792 3.66824 2.74715 3.58616 2.71249C3.50409 2.67783 3.41589 2.65996 3.3268 2.65996Z" fill="black"/>
</svg>
