<svg width="20" height="24" viewBox="0 0 20 24" fill="none" xmlns="http://www.w3.org/2000/svg">
<path d="M1.875 24C1.375 24 0.9375 23.82 0.5625 23.46C0.1875 23.1 0 22.68 0 22.2V6.6C0 6.12 0.1875 5.7 0.5625 5.34C0.9375 4.98 1.375 4.8 1.875 4.8H5.3125V4.5C5.3125 3.24 5.76562 2.175 6.67187 1.305C7.57812 0.435 8.6875 0 10 0C11.3125 0 12.4219 0.435 13.3281 1.305C14.2344 2.175 14.6875 3.24 14.6875 4.5V4.8H18.125C18.625 4.8 19.0625 4.98 19.4375 5.34C19.8125 5.7 20 6.12 20 6.6V22.2C20 22.68 19.8125 23.1 19.4375 23.46C19.0625 23.82 18.625 24 18.125 24H1.875ZM1.875 22.2H18.125V6.6H14.6875V9.3C14.6875 9.56 14.599 9.775 14.4219 9.945C14.2448 10.115 14.0208 10.2 13.75 10.2C13.4792 10.2 13.2552 10.115 13.0781 9.945C12.901 9.775 12.8125 9.56 12.8125 9.3V6.6H7.1875V9.3C7.1875 9.56 7.09896 9.775 6.92188 9.945C6.74479 10.115 6.52083 10.2 6.25 10.2C5.97917 10.2 5.75521 10.115 5.57812 9.945C5.40104 9.775 5.3125 9.56 5.3125 9.3V6.6H1.875V22.2ZM7.1875 4.8H12.8125V4.5C12.8125 3.74 12.5417 3.1 12 2.58C11.4583 2.06 10.7917 1.8 10 1.8C9.20833 1.8 8.54167 2.06 8 2.58C7.45833 3.1 7.1875 3.74 7.1875 4.5V4.8ZM1.875 22.2V6.6V22.2Z" fill="#1B1517"/>
</svg>
