<svg width="160" height="160" fill="none" xmlns="http://www.w3.org/2000/svg"><circle cx="80" cy="80" r="80" fill="#FAFAFA"/><path d="M49.159 94V67.216h-4.356V94h4.356Zm3.563-8.928c0 5.544 3.996 9.36 9.504 9.36 5.508 0 9.504-3.816 9.504-9.36s-3.996-9.36-9.504-9.36c-5.508 0-9.504 3.816-9.504 9.36Zm4.392 0c0-3.24 2.088-5.436 5.112-5.436s5.112 2.196 5.112 5.436c0 3.24-2.088 5.436-5.112 5.436s-5.112-2.196-5.112-5.436Zm17.09-.36c0 5.148 3.311 8.928 8.351 8.928 2.556 0 4.752-1.044 5.868-2.7v2.952c0 2.952-1.944 4.86-4.968 4.86-2.7 0-4.464-1.368-4.752-3.672h-4.392c.54 4.752 4.032 7.668 9.144 7.668 5.76 0 9.324-3.708 9.324-9.648V76.216h-4.068l-.252 2.448c-1.044-1.908-3.132-3.024-5.796-3.024-5.076 0-8.46 3.888-8.46 9.072Zm4.427-.108c0-2.916 1.872-5.112 4.788-5.112 3.06 0 4.896 2.088 4.896 5.112 0 3.096-1.872 5.22-4.896 5.22-2.88 0-4.788-2.232-4.788-5.22Zm17.65.468c0 5.544 3.996 9.36 9.504 9.36 5.508 0 9.504-3.816 9.504-9.36s-3.996-9.36-9.504-9.36c-5.508 0-9.504 3.816-9.504 9.36Zm4.392 0c0-3.24 2.088-5.436 5.112-5.436s5.112 2.196 5.112 5.436c0 3.24-2.088 5.436-5.112 5.436s-5.112-2.196-5.112-5.436Z" fill="#EEE"/></svg>