<svg width="91" height="34" fill="none" xmlns="http://www.w3.org/2000/svg"><path d="M4 33.056c-.96 0-1.68-.168-2.16-.504-.504-.336-.828-.78-.972-1.332.696-.144 1.284-.36 1.764-.648.48-.288.9-.72 1.26-1.296.36-.576.684-1.332.972-2.268.288-.936.576-2.124.864-3.564L8.464 9.26h-2.52l.324-1.62h2.52l.468-1.8c.408-1.56 1.032-2.748 1.872-3.564.864-.84 1.908-1.416 3.132-1.728C15.484.236 16.852.08 18.364.08c.888 0 1.68.048 2.376.144.72.096 1.404.252 2.052.468l3.312-.396L21.82 21.86c-.024.192-.06.444-.108.756-.048.288-.072.54-.072.756 0 .384.096.708.288.972.216.24.528.384.936.432a2.169 2.169 0 0 1-1.188 1.476 4.37 4.37 0 0 1-1.98.468c-.864 0-1.56-.24-2.088-.72s-.792-1.164-.792-2.052c0-.312.036-.708.108-1.188.072-.504.156-1.02.252-1.548.096-.552.192-1.068.288-1.548.096-.504.168-.912.216-1.224l2.772-14.076c.072-.288.132-.54.18-.756.048-.24.072-.42.072-.54 0-.408-.264-.732-.792-.972-.504-.264-1.14-.396-1.908-.396-1.128 0-2.016.288-2.664.864-.624.576-1.056 1.44-1.296 2.592l-.468 2.484h3.06l-.252 1.62h-3.132l-2.916 15.012c-.36 1.92-.816 3.528-1.368 4.824-.528 1.32-1.2 2.304-2.016 2.952-.792.672-1.776 1.008-2.952 1.008Zm27.492-6.336c-1.224 0-2.256-.192-3.096-.576-.84-.36-1.524-.852-2.052-1.476a6.212 6.212 0 0 1-1.116-2.124 9.667 9.667 0 0 1-.324-2.484c0-1.68.216-3.3.648-4.86.432-1.56 1.08-2.964 1.944-4.212a9.424 9.424 0 0 1 3.276-2.952c1.32-.744 2.88-1.116 4.68-1.116 1.248 0 2.28.192 3.096.576.84.36 1.512.852 2.016 1.476.528.624.9 1.332 1.116 2.124.24.792.36 1.608.36 2.448 0 1.68-.216 3.312-.648 4.896-.432 1.56-1.08 2.964-1.944 4.212a9.77 9.77 0 0 1-3.276 2.988c-1.32.72-2.88 1.08-4.68 1.08Zm.648-2.16c.696 0 1.32-.252 1.872-.756.552-.528 1.02-1.212 1.404-2.052a15.59 15.59 0 0 0 1.008-2.88c.264-1.056.456-2.136.576-3.24.144-1.104.216-2.16.216-3.168 0-.984-.18-1.788-.54-2.412-.336-.648-.96-.972-1.872-.972-.696 0-1.32.252-1.872.756s-1.032 1.188-1.44 2.052c-.408.84-.744 1.788-1.008 2.844a23.929 23.929 0 0 0-.576 3.276c-.12 1.104-.18 2.16-.18 3.168 0 .984.168 1.8.504 2.448.36.624.996.936 1.908.936Zm16.636 2.16c-2.136 0-3.768-.588-4.896-1.764-1.104-1.2-1.656-3.024-1.656-5.472 0-1.608.228-3.156.684-4.644a13.243 13.243 0 0 1 2.016-4.032 10.044 10.044 0 0 1 3.348-2.844c1.32-.696 2.832-1.044 4.536-1.044 1.032 0 1.944.144 2.736.432.792.264 1.404.672 1.836 1.224.456.552.684 1.272.684 2.16 0 1.128-.336 1.956-1.008 2.484a3.739 3.739 0 0 1-2.304.756 5.52 5.52 0 0 1-.828-.072 1.699 1.699 0 0 1-.72-.36 9.41 9.41 0 0 0 .36-1.368c.12-.528.18-.996.18-1.404 0-.528-.12-.948-.36-1.26-.24-.312-.624-.468-1.152-.468-.672 0-1.284.24-1.836.72s-1.044 1.116-1.476 1.908c-.408.768-.756 1.62-1.044 2.556a22.394 22.394 0 0 0-.612 2.736c-.144.888-.216 1.668-.216 2.34 0 1.152.228 2.112.684 2.88.456.768 1.284 1.152 2.484 1.152 1.056 0 1.968-.3 2.736-.9a5.097 5.097 0 0 0 1.692-2.412c.456.144.78.384.972.72.192.336.288.744.288 1.224 0 .888-.324 1.692-.972 2.412-.624.72-1.476 1.284-2.556 1.692-1.056.432-2.256.648-3.6.648Zm13.394 0c-1.128 0-2.064-.216-2.808-.648a3.806 3.806 0 0 1-1.656-1.764c-.336-.768-.504-1.668-.504-2.7 0-.672.084-1.56.252-2.664.168-1.128.432-2.604.792-4.428.384-1.824.852-4.116 1.404-6.876l4.788-.504c-.528 2.472-.96 4.536-1.296 6.192a330.785 330.785 0 0 1-.792 4.032 39.154 39.154 0 0 0-.396 2.556 15.838 15.838 0 0 0-.108 1.728c0 .48.06.948.18 1.404.12.432.324.792.612 1.08.312.264.744.396 1.296.396.816 0 1.488-.276 2.016-.828.552-.576.984-1.284 1.296-2.124.312-.84.54-1.668.684-2.484L70.09 7.64l4.86-.504-2.844 14.724c-.024.192-.06.432-.108.72a4.848 4.848 0 0 0-.072.792c0 .384.096.708.288.972.216.24.54.384.972.432-.12.432-.348.792-.684 1.08-.336.288-.72.504-1.152.648-.408.144-.84.216-1.296.216-.696 0-1.296-.18-1.8-.54-.504-.336-.828-.84-.972-1.512-.528.72-1.272 1.236-2.232 1.548a8.463 8.463 0 0 1-2.88.504Zm18.313.072c-.792 0-1.584-.072-2.376-.216a8.434 8.434 0 0 1-2.16-.684c-.648-.312-1.164-.708-1.548-1.188-.36-.504-.54-1.092-.54-1.764 0-.696.168-1.248.504-1.656.36-.408.804-.708 1.332-.9a4.608 4.608 0 0 1 1.584-.288c.312 0 .636.036.972.108.336.072.6.204.792.396-.12.384-.216.732-.288 1.044a4.834 4.834 0 0 0-.108 1.08c0 .6.216 1.092.648 1.476.456.384 1.068.576 1.836.576.84 0 1.524-.216 2.052-.648.552-.456.828-1.032.828-1.728a2.336 2.336 0 0 0-.576-1.656 6.908 6.908 0 0 0-1.476-1.404c-.6-.456-1.224-.912-1.872-1.368a23.33 23.33 0 0 1-1.908-1.44 7.31 7.31 0 0 1-1.476-1.764c-.384-.672-.576-1.452-.576-2.34 0-.912.24-1.716.72-2.412s1.116-1.272 1.908-1.728a9.34 9.34 0 0 1 2.628-1.008c.96-.24 1.932-.36 2.916-.36.912 0 1.812.12 2.7.36.888.216 1.62.588 2.196 1.116.6.528.9 1.26.9 2.196-.024.96-.336 1.692-.936 2.196a3.15 3.15 0 0 1-2.088.756c-.312 0-.66-.036-1.044-.108a2.801 2.801 0 0 1-.936-.432c.144-.312.252-.624.324-.936.096-.336.144-.684.144-1.044.024-.648-.168-1.164-.576-1.548-.408-.384-.984-.576-1.728-.576-.72 0-1.332.192-1.836.576-.504.384-.768.936-.792 1.656 0 .528.144 1.02.432 1.476.312.456.72.888 1.224 1.296.504.408 1.044.804 1.62 1.188.768.504 1.5 1.032 2.196 1.584a7.1 7.1 0 0 1 1.764 1.836c.48.672.72 1.5.72 2.484a4.89 4.89 0 0 1-1.116 3.06c-.72.864-1.692 1.536-2.916 2.016s-2.58.72-4.068.72Z" fill="#1B1517"/></svg>