<svg width="48" height="48" viewBox="0 0 48 48" fill="none" xmlns="http://www.w3.org/2000/svg">
<path d="M7.5 38.0001C7.06667 38.0001 6.70833 37.8584 6.425 37.5751C6.14167 37.2918 6 36.9334 6 36.5001V29.3001C6 26.6668 6.93333 24.4251 8.8 22.5751C10.6667 20.7251 12.9 19.8001 15.5 19.8001H36.3L29.6 13.1001C29.3333 12.8334 29.2 12.5001 29.2 12.1001C29.2 11.7001 29.35 11.3501 29.65 11.0501C29.95 10.7501 30.3 10.6001 30.7 10.6001C31.1 10.6001 31.45 10.7501 31.75 11.0501L40.95 20.2501C41.1167 20.4168 41.2333 20.5834 41.3 20.7501C41.3667 20.9168 41.4 21.1001 41.4 21.3001C41.4 21.5001 41.3667 21.6834 41.3 21.8501C41.2333 22.0168 41.1167 22.1834 40.95 22.3501L31.7 31.6001C31.4333 31.8668 31.1 32.0001 30.7 32.0001C30.3 32.0001 29.95 31.8501 29.65 31.5501C29.35 31.2501 29.2 30.9001 29.2 30.5001C29.2 30.1001 29.35 29.7501 29.65 29.4501L36.3 22.8001H15.5C13.7 22.8001 12.1667 23.4334 10.9 24.7001C9.63333 25.9668 9 27.5001 9 29.3001V36.5001C9 36.9334 8.85833 37.2918 8.575 37.5751C8.29167 37.8584 7.93333 38.0001 7.5 38.0001Z" fill="#4B2E35"/>
</svg>
