<svg width="28" height="20" viewBox="0 0 28 20" fill="none" xmlns="http://www.w3.org/2000/svg">
<path d="M11.808 7.488C11.808 2.784 8.928 0 5.664 0C2.304 0 0 2.4 0 5.664C0 8.928 2.208 10.752 4.704 10.752C5.856 10.752 6.72 10.56 7.296 10.176C7.296 12.864 4.8 15.264 1.44 15.936V19.488C7.392 18.624 11.808 13.536 11.808 7.488ZM27.36 7.488C27.36 2.784 24.48 0 21.12 0C17.76 0 15.456 2.4 15.456 5.664C15.456 8.928 17.76 10.752 20.256 10.752C21.504 10.752 22.272 10.464 22.848 10.08C22.848 12.864 20.352 15.264 16.992 15.936V19.488C22.848 18.624 27.36 13.536 27.36 7.488Z" fill="#FA809E" fill-opacity="0.2"/>
</svg>
